#!OML:ASF H:\LiuWeirdWalks\Patient Classification 1\Patient 1\Session 1\male.ASF
:FULLY-SPECIFIED
:DEGREES
412
root 0.568286 17.5583 -25.8485 6.76991 18.9495 11.1847
lowerback 9.81855 -2.06599 -2.13191
upperback -0.992657 -2.58104 6.32018
thorax -6.18439 -1.07121 8.34355
lowerneck -14.1111 -5.64872 1.41064
upperneck 25.3108 -5.35983 -11.3203
head 9.9925 -3.64395 -4.91598
rclavicle -5.96354e-014 -5.08889e-014
rhumerus -30.5825 -60.0099 33.8001
rradius 24.0674
rwrist 11.868
rhand -15.7403 5.46865
rfingers 7.12502
rthumb 10.4507 -24.2516
lclavicle -5.96354e-014 -5.08889e-014
lhumerus -10.5708 24.4424 -9.67952
lradius 22.9098
lwrist -14.169
lhand -18.3574 7.23942
lfingers 7.12502
lthumb 7.92539 37.0709
rfemur -28.6085 -4.98908 -3.56255
rtibia 35.6237
rfoot -4.22612 -18.0364
rtoes -8.29562
lfemur 6.09943 0.647196 -28.2144
ltibia 20.0166
lfoot -10.8768 8.48481
ltoes -24.2721
413
root 0.534475 17.5581 -25.7593 6.76068 18.9647 11.3786
lowerback 9.82142 -2.08531 -2.11229
upperback -0.987282 -2.60069 6.37281
thorax -6.17583 -1.08077 8.39283
lowerneck -14.1906 -5.62726 1.44605
upperneck 25.1128 -5.29783 -11.5314
head 9.93373 -3.63708 -4.98221
rclavicle 9.54166e-015 4.77083e-014
rhumerus -30.6639 -59.97 33.8198
rradius 24.0751
rwrist 11.8862
rhand -15.7939 5.53716
rfingers 7.12502
rthumb 10.399 -24.1857
lclavicle 9.54166e-015 4.77083e-014
lhumerus -10.6015 24.7827 -9.73464
lradius 22.8994
lwrist -13.8161
lhand -18.0611 6.38586
lfingers 7.12502
lthumb 8.21132 36.2063
rfemur -28.6504 -5.05637 -3.56655
rtibia 36.248
rfoot -4.4669 -17.7483
rtoes -7.85971
lfemur 6.19521 0.767524 -28.0612
ltibia 20.3777
lfoot -10.6479 7.89582
ltoes -24.9056
414
root 0.499969 17.5574 -25.6684 6.75439 18.9899 11.5692
lowerback 9.78589 -2.10317 -2.08921
upperback -0.968723 -2.6186 6.43091
thorax -6.13155 -1.09113 8.4425
lowerneck -14.1819 -5.64978 1.37473
upperneck 24.8593 -5.29977 -11.6504
head 9.84089 -3.65644 -4.99701
rclavicle 5.56597e-015 1.59028e-014
rhumerus -30.8044 -59.9407 33.8953
rradius 24.0719
rwrist 11.8906
rhand -15.8406 5.57382
rfingers 7.12502
rthumb 10.3539 -24.1513
lclavicle 5.56597e-015 1.59028e-014
lhumerus -10.5857 25.1029 -9.77407
lradius 22.9677
lwrist -13.094
lhand -17.5625 6.00889
lfingers 7.12502
lthumb 8.6925 35.8099
rfemur -28.6711 -5.09981 -3.56817
rtibia 36.8583
rfoot -4.72824 -17.4662
rtoes -7.3946
lfemur 6.28567 0.889493 -27.8879
ltibia 20.7395
lfoot -10.4097 7.25857
ltoes -25.5264
415
root 0.464697 17.5562 -25.5749 6.74126 19.0449 11.7684
lowerback 9.74649 -2.12598 -2.08156
upperback -0.960519 -2.64429 6.49537
thorax -6.0939 -1.10422 8.50961
lowerneck -14.161 -5.64607 1.39237
upperneck 24.6186 -5.269 -11.843
head 9.74697 -3.66046 -5.04924
rclavicle -2.66371e-014 -6.36111e-015
rhumerus -30.9721 -59.9336 34.0112
rradius 24.0563
rwrist 11.9558
rhand -15.8694 5.59012
rfingers 7.12502
rthumb 10.3261 -24.1364
lclavicle -2.66371e-014 -6.36111e-015
lhumerus -10.5138 25.4695 -9.80296
lradius 23.1114
lwrist -11.8422
lhand -16.7053 5.94617
lfingers 7.12502
lthumb 9.51968 35.7111
rfemur -28.6369 -5.11604 -3.58275
rtibia 37.4466
rfoot -4.99126 -17.251
rtoes -6.89671
lfemur 6.39791 0.986227 -27.7079
ltibia 21.0919
lfoot -10.1552 6.59512
ltoes -26.1459
416
root 0.428401 17.5551 -25.479 6.71347 19.1415 11.9649
lowerback 9.71212 -2.15641 -2.0598
upperback -0.952421 -2.67856 6.55658
thorax -6.05856 -1.12199 8.56638
lowerneck -14.1575 -5.63558 1.4373
upperneck 24.4141 -5.23293 -12.0382
head 9.66879 -3.66017 -5.10933
rclavicle -1.94809e-014 5.725e-014
rhumerus -31.1694 -59.8746 34.1377
rradius 24.0421
rwrist 11.9495
rhand -15.8907 5.58976
rfingers 7.12502
rthumb 10.3056 -24.1377
lclavicle -1.94809e-014 5.725e-014
lhumerus -10.3667 25.8073 -9.80157
lradius 23.3532
lwrist -10.2241
lhand -15.622 6.47601
lfingers 7.12502
lthumb 10.5648 36.1905
rfemur -28.5321 -5.09187 -3.59829
rtibia 38.0065
rfoot -5.22982 -17.1581
rtoes -6.3374
lfemur 6.53999 1.04408 -27.5103
ltibia 21.4311
lfoot -9.87473 5.92068
ltoes -26.776
417
root 0.392115 17.5542 -25.3806 6.68473 19.2858 12.1776
lowerback 9.65348 -2.2003 -2.0437
upperback -0.944199 -2.73192 6.61786
thorax -6.0059 -1.1497 8.62731
lowerneck -14.272 -5.55378 1.67186
upperneck 24.2897 -5.09575 -12.4019
head 9.63717 -3.61824 -5.26082
rclavicle -2.10712e-014 -9.54166e-015
rhumerus -31.3619 -59.7701 34.2528
rradius 24.0315
rwrist 11.8755
rhand -15.9369 5.57854
rfingers 7.12502
rthumb 10.261 -24.1512
lclavicle -2.10712e-014 -9.54166e-015
lhumerus -10.2444 25.8602 -9.76562
lradius 23.5122
lwrist -9.74299
lhand -15.3706 7.1113
lfingers 7.12502
lthumb 10.8073 36.8133
rfemur -28.3573 -5.06428 -3.63229
rtibia 38.5292
rfoot -5.42972 -17.1653
rtoes -5.66903
lfemur 6.70175 1.03901 -27.3263
ltibia 21.7576
lfoot -9.54955 5.25972
ltoes -27.4048
418
root 0.356483 17.5538 -25.2805 6.64909 19.4694 12.3983
lowerback 9.58763 -2.2538 -2.00312
upperback -0.944606 -2.79553 6.67031
thorax -5.95812 -1.1831 8.66536
lowerneck -14.3182 -5.49686 1.86755
upperneck 24.1521 -4.99458 -12.7344
head 9.58803 -3.59123 -5.39461
rclavicle 1.19271e-015 6.99722e-014
rhumerus -31.5801 -59.6464 34.3847
rradius 24.0258
rwrist 11.7815
rhand -15.9855 5.58597
rfingers 7.12502
rthumb 10.2141 -24.1461
lclavicle 1.19271e-015 6.99722e-014
lhumerus -10.0676 25.827 -9.68425
lradius 23.7195
lwrist -9.34278
lhand -15.1786 8.01883
lfingers 7.12502
lthumb 10.9925 37.711
rfemur -28.1123 -5.04738 -3.67105
rtibia 39.0075
rfoot -5.59311 -17.2387
rtoes -4.90259
lfemur 6.87843 0.983631 -27.1522
ltibia 22.0854
lfoot -9.17988 4.61653
ltoes -28.0135
419
root 0.321817 17.5545 -25.1791 6.60383 19.6644 12.5995
lowerback 9.52515 -2.30843 -1.92135
upperback -0.958302 -2.85484 6.72715
thorax -5.92886 -1.21458 8.6845
lowerneck -14.0891 -5.61066 1.61003
upperneck 23.9163 -5.1184 -12.7132
head 9.46196 -3.66146 -5.3307
rclavicle 3.97569e-015 -1.59028e-014
rhumerus -31.771 -59.46 34.4904
rradius 24.0259
rwrist 11.6533
rhand -16.065 5.60483
rfingers 7.12502
rthumb 10.1374 -24.131
lclavicle 3.97569e-015 -1.59028e-014
lhumerus -9.88198 25.7637 -9.58572
lradius 23.9034
lwrist -9.24184
lhand -15.2145 8.70106
lfingers 7.12502
lthumb 10.9579 38.3951
rfemur -27.8198 -5.03682 -3.67909
rtibia 39.4346
rfoot -5.73001 -17.3512
rtoes -4.0945
lfemur 7.04412 0.906359 -26.9631
ltibia 22.4386
lfoot -8.77509 3.9868
ltoes -28.5623
420
root 0.287843 17.5566 -25.077 6.54672 19.8632 12.7677
lowerback 9.46292 -2.36323 -1.7929
upperback -0.981733 -2.90758 6.79633
thorax -5.91291 -1.24328 8.68969
lowerneck -13.8863 -5.7058 1.4155
upperneck 23.6998 -5.21002 -12.7805
head 9.34591 -3.72149 -5.30784
rclavicle -9.14409e-015 -8.26944e-014
rhumerus -31.9398 -59.2674 34.5826
rradius 24.0337
rwrist 11.5014
rhand -16.1875 5.64162
rfingers 7.12502
rthumb 10.0193 -24.0999
lclavicle -9.14409e-015 -8.26944e-014
lhumerus -9.70498 25.549 -9.45731
lradius 24.0959
lwrist -9.44591
lhand -15.5345 9.4025
lfingers 7.12502
lthumb 10.6492 39.1126
rfemur -27.4908 -5.02549 -3.63868
rtibia 39.8115
rfoot -5.87087 -17.5051
rtoes -3.3355
lfemur 7.17896 0.824793 -26.7429
ltibia 22.8368
lfoot -8.33247 3.35936
ltoes -29.0606
421
root 0.254608 17.5601 -24.9749 6.47294 20.0424 12.8851
lowerback 9.41658 -2.40851 -1.59753
upperback -1.01538 -2.93801 6.87789
thorax -5.92326 -1.26156 8.66834
lowerneck -13.7169 -5.8081 1.17867
upperneck 23.5636 -5.29939 -12.8319
head 9.26746 -3.78386 -5.27883
rclavicle 5.36719e-014 6.36111e-015
rhumerus -32.1258 -59.1107 34.7063
rradius 24.0498
rwrist 11.3632
rhand -16.3434 5.69734
rfingers 7.12502
rthumb 9.86891 -24.0514
lclavicle 5.36719e-014 6.36111e-015
lhumerus -9.47956 25.7624 -9.35168
lradius 24.298
lwrist -9.00927
lhand -15.3126 9.40709
lfingers 7.12502
lthumb 10.8632 39.1061
rfemur -27.1448 -4.99977 -3.53225
rtibia 40.1439
rfoot -6.04758 -17.6919
rtoes -2.75487
lfemur 7.27001 0.748202 -26.4782
ltibia 23.2968
lfoot -7.84666 2.73758
ltoes -29.4825
422
root 0.221257 17.5646 -24.8726 6.36459 20.2018 12.9357
lowerback 9.37806 -2.44613 -1.34087
upperback -1.04127 -2.94951 6.98173
thorax -5.9349 -1.27204 8.63359
lowerneck -13.7081 -5.82429 1.1563
upperneck 23.5067 -5.26243 -13.087
head 9.2425 -3.79591 -5.35724
rclavicle -7.15625e-015 6.04305e-014
rhumerus -32.3201 -59.0033 34.8456
rradius 24.0732
rwrist 11.2654
rhand -16.5317 5.76152
rfingers 7.12502
rthumb 9.68724 -23.9957
lclavicle -7.15625e-015 6.04305e-014
lhumerus -9.26514 25.9596 -9.23156
lradius 24.4769
lwrist -8.84288
lhand -15.2833 9.25743
lfingers 7.12502
lthumb 10.8915 38.955
rfemur -26.7768 -4.93242 -3.34601
rtibia 40.4466
rfoot -6.29721 -17.928
rtoes -2.39642
lfemur 7.32943 0.690511 -26.1424
ltibia 23.8168
lfoot -7.32181 2.10237
ltoes -29.8455
423
root 0.188275 17.5691 -24.7701 6.23577 20.3364 12.9618
lowerback 9.35949 -2.47666 -1.06318
upperback -1.07418 -2.94733 7.09699
thorax -5.96811 -1.27527 8.59953
lowerneck -13.6806 -5.84743 1.09917
upperneck 23.4796 -5.22655 -13.3357
head 9.22615 -3.81066 -5.42879
rclavicle 1.90833e-014 4.13472e-014
rhumerus -32.5235 -58.9918 35.0123
rradius 24.1004
rwrist 11.2998
rhand -16.7155 5.84351
rfingers 7.12502
rthumb 9.50989 -23.9219
lclavicle 1.90833e-014 4.13472e-014
lhumerus -9.05676 26.1727 -9.10336
lradius 24.6388
lwrist -8.77726
lhand -15.314 9.00379
lfingers 7.12502
lthumb 10.8619 38.7029
rfemur -26.3949 -4.83707 -3.13351
rtibia 40.7328
rfoot -6.62988 -18.1927
rtoes -2.27057
lfemur 7.35864 0.650374 -25.7822
ltibia 24.3939
lfoot -6.74458 1.44745
ltoes -30.1764
424
root 0.155729 17.573 -24.6677 6.0916 20.4367 12.9906
lowerback 9.37148 -2.49859 -0.785233
upperback -1.11583 -2.93228 7.20896
thorax -6.03022 -1.2711 8.56307
lowerneck -13.7666 -5.79101 1.26384
upperneck 23.5056 -5.07678 -13.7916
head 9.24427 -3.77956 -5.60831
rclavicle -6.91771e-014 3.18055e-015
rhumerus -32.6647 -58.9412 35.1089
rradius 24.1406
rwrist 11.3038
rhand -16.9107 5.90452
rfingers 7.12502
rthumb 9.32148 -23.8694
lclavicle -6.91771e-014 3.18055e-015
lhumerus -8.86024 26.3323 -8.98139
lradius 24.8006
lwrist -8.75903
lhand -15.3855 8.69233
lfingers 7.12502
lthumb 10.793 38.395
rfemur -26.0075 -4.71695 -2.92892
rtibia 41.0173
rfoot -7.03099 -18.4633
rtoes -2.32233
lfemur 7.36987 0.647945 -25.419
ltibia 25.0165
lfoot -6.11085 0.75364
ltoes -30.4918
425
root 0.123835 17.5768 -24.5654 5.94673 20.4925 13.034
lowerback 9.38638 -2.51094 -0.520601
upperback -1.15452 -2.90603 7.31663
thorax -6.09204 -1.26127 8.52833
lowerneck -13.8082 -5.74091 1.41405
upperneck 23.4867 -4.9376 -14.2481
head 9.23896 -3.75282 -5.78236
rclavicle -4.65156e-014 0
rhumerus -32.7407 -58.852 35.127
rradius 24.189
rwrist 11.262
rhand -17.0895 5.96195
rfingers 7.12502
rthumb 9.14899 -23.8196
lclavicle -4.65156e-014 0
lhumerus -8.68994 26.451 -8.87401
lradius 24.9534
lwrist -8.82796
lhand -15.5214 8.35503
lfingers 7.12502
lthumb 10.6618 38.0645
rfemur -25.6335 -4.57004 -2.7469
rtibia 41.3036
rfoot -7.47499 -18.728
rtoes -2.45145
lfemur 7.34501 0.690632 -25.0658
ltibia 25.6814
lfoot -5.39322 0.0180144
ltoes -30.7929
426
root 0.0931987 17.5797 -24.4641 5.81399 20.4979 13.1225
lowerback 9.40931 -2.51318 -0.290158
upperback -1.19339 -2.87083 7.40955
thorax -6.15892 -1.2462 8.49673
lowerneck -13.823 -5.68382 1.6044
upperneck 23.4211 -4.7914 -14.7592
head 9.2107 -3.72355 -5.97805
rclavicle 5.40694e-014 1.59028e-014
rhumerus -32.7446 -58.7247 35.0562
rradius 24.2396
rwrist 11.1928
rhand -17.2499 6.01636
rfingers 7.12502
rthumb 8.99421 -23.7719
lclavicle 5.40694e-014 1.59028e-014
lhumerus -8.54562 26.5515 -8.79097
lradius 25.1001
lwrist -8.88974
lhand -15.6259 8.08823
lfingers 7.12502
lthumb 10.561 37.8029
rfemur -25.2848 -4.42455 -2.62186
rtibia 41.5963
rfoot -7.92683 -18.9508
rtoes -2.58934
lfemur 7.28945 0.782355 -24.7553
ltibia 26.3826
lfoot -4.5831 -0.756712
ltoes -31.0751
